<svg width="254" height="61" viewBox="0 0 254 61" fill="none" xmlns="http://www.w3.org/2000/svg">
<path d="M80.888 48.24C78.424 48.24 76.216 47.664 74.264 46.512C72.312 45.328 70.76 43.728 69.608 41.712C68.488 39.696 67.928 37.424 67.928 34.896C67.928 32.336 68.504 30.048 69.656 28.032C70.84 26.016 72.44 24.432 74.456 23.28C76.472 22.096 78.744 21.504 81.272 21.504C83.8 21.504 86.056 22.096 88.04 23.28C90.056 24.432 91.64 26.016 92.792 28.032C93.976 30.048 94.584 32.336 94.616 34.896V46.176C94.616 46.72 94.44 47.168 94.088 47.52C93.736 47.84 93.288 48 92.744 48C92.2 48 91.752 47.84 91.4 47.52C91.048 47.168 90.872 46.72 90.872 46.176V43.248C89.784 44.784 88.376 46 86.648 46.896C84.92 47.792 83 48.24 80.888 48.24ZM81.272 44.88C83.128 44.88 84.776 44.448 86.216 43.584C87.688 42.72 88.84 41.536 89.672 40.032C90.536 38.496 90.968 36.784 90.968 34.896C90.968 32.976 90.536 31.264 89.672 29.76C88.84 28.256 87.688 27.072 86.216 26.208C84.776 25.312 83.128 24.864 81.272 24.864C79.448 24.864 77.8 25.312 76.328 26.208C74.856 27.072 73.688 28.256 72.824 29.76C71.96 31.264 71.528 32.976 71.528 34.896C71.528 36.784 71.96 38.496 72.824 40.032C73.688 41.536 74.856 42.72 76.328 43.584C77.8 44.448 79.448 44.88 81.272 44.88ZM94.8444 59.232C94.3004 59.232 93.8524 59.056 93.5004 58.704C93.1484 58.384 92.9724 57.936 92.9724 57.36C92.9724 56.816 93.1484 56.368 93.5004 56.016C93.8524 55.664 94.3004 55.488 94.8444 55.488C97.0524 55.488 98.8604 54.784 100.268 53.376C101.676 51.968 102.38 50.176 102.38 48V23.616C102.38 23.04 102.54 22.592 102.86 22.272C103.212 21.92 103.66 21.744 104.204 21.744C104.748 21.744 105.196 21.92 105.548 22.272C105.9 22.592 106.076 23.04 106.076 23.616V48C106.076 50.176 105.596 52.112 104.636 53.808C103.676 55.504 102.348 56.832 100.652 57.792C98.9564 58.752 97.0204 59.232 94.8444 59.232ZM104.156 16.752C103.452 16.752 102.844 16.496 102.332 15.984C101.82 15.472 101.564 14.848 101.564 14.112C101.564 13.312 101.82 12.688 102.332 12.24C102.876 11.76 103.5 11.52 104.204 11.52C104.876 11.52 105.468 11.76 105.98 12.24C106.524 12.688 106.796 13.312 106.796 14.112C106.796 14.848 106.54 15.472 106.028 15.984C105.516 16.496 104.892 16.752 104.156 16.752ZM117.364 48C116.788 48 116.324 47.84 115.972 47.52C115.652 47.168 115.492 46.72 115.492 46.176V23.616C115.492 23.04 115.652 22.592 115.972 22.272C116.324 21.92 116.788 21.744 117.364 21.744C117.908 21.744 118.34 21.92 118.66 22.272C119.012 22.592 119.188 23.04 119.188 23.616V25.248C120.212 24.064 121.476 23.136 122.98 22.464C124.516 21.792 126.164 21.456 127.924 21.456C130.196 21.456 132.228 21.936 134.02 22.896C135.812 23.824 137.22 25.2 138.244 27.024C139.3 28.848 139.828 31.072 139.828 33.696V46.176C139.828 46.688 139.652 47.12 139.3 47.472C138.948 47.824 138.516 48 138.004 48C137.46 48 137.012 47.824 136.66 47.472C136.308 47.12 136.132 46.688 136.132 46.176V33.696C136.132 30.72 135.3 28.528 133.636 27.12C132.004 25.68 129.972 24.96 127.54 24.96C125.972 24.96 124.548 25.264 123.268 25.872C122.02 26.48 121.028 27.312 120.292 28.368C119.556 29.424 119.188 30.624 119.188 31.968V46.176C119.188 46.72 119.012 47.168 118.66 47.52C118.34 47.84 117.908 48 117.364 48ZM117.364 37.296C116.788 37.296 116.324 37.12 115.972 36.768C115.652 36.416 115.492 35.968 115.492 35.424V12.384C115.492 11.808 115.652 11.36 115.972 11.04C116.324 10.688 116.788 10.512 117.364 10.512C117.908 10.512 118.34 10.688 118.66 11.04C119.012 11.36 119.188 11.808 119.188 12.384V35.424C119.188 35.968 119.012 36.416 118.66 36.768C118.34 37.12 117.908 37.296 117.364 37.296ZM159.88 48.24C157.288 48.24 154.984 47.68 152.968 46.56C150.984 45.408 149.416 43.824 148.264 41.808C147.144 39.792 146.584 37.488 146.584 34.896C146.584 32.272 147.112 29.968 148.168 27.984C149.256 25.968 150.744 24.384 152.632 23.232C154.52 22.08 156.696 21.504 159.16 21.504C161.592 21.504 163.704 22.064 165.496 23.184C167.32 24.272 168.728 25.792 169.72 27.744C170.712 29.696 171.208 31.92 171.208 34.416C171.208 34.928 171.048 35.344 170.728 35.664C170.408 35.952 169.992 36.096 169.48 36.096H150.088C150.28 37.824 150.808 39.36 151.672 40.704C152.536 42.016 153.672 43.056 155.08 43.824C156.488 44.56 158.088 44.928 159.88 44.928C161.032 44.928 162.184 44.736 163.336 44.352C164.52 43.936 165.464 43.424 166.168 42.816C166.52 42.528 166.92 42.384 167.368 42.384C167.816 42.352 168.2 42.464 168.52 42.72C168.936 43.104 169.144 43.52 169.144 43.968C169.176 44.416 169 44.8 168.616 45.12C167.56 46.016 166.216 46.768 164.584 47.376C162.952 47.952 161.384 48.24 159.88 48.24ZM159.16 24.816C156.696 24.816 154.664 25.584 153.064 27.12C151.464 28.624 150.504 30.592 150.184 33.024H167.752C167.496 30.592 166.6 28.624 165.064 27.12C163.56 25.584 161.592 24.816 159.16 24.816ZM179.333 48C178.757 48 178.293 47.84 177.941 47.52C177.621 47.168 177.461 46.72 177.461 46.176V23.616C177.461 23.04 177.621 22.592 177.941 22.272C178.293 21.92 178.757 21.744 179.333 21.744C179.877 21.744 180.309 21.92 180.629 22.272C180.981 22.592 181.157 23.04 181.157 23.616V25.248C182.181 24.064 183.445 23.136 184.949 22.464C186.485 21.792 188.133 21.456 189.893 21.456C192.165 21.456 194.197 21.936 195.989 22.896C197.781 23.824 199.189 25.2 200.213 27.024C201.269 28.848 201.797 31.072 201.797 33.696V46.176C201.797 46.688 201.621 47.12 201.269 47.472C200.917 47.824 200.485 48 199.973 48C199.429 48 198.981 47.824 198.629 47.472C198.277 47.12 198.101 46.688 198.101 46.176V33.696C198.101 30.72 197.269 28.528 195.605 27.12C193.973 25.68 191.941 24.96 189.509 24.96C187.941 24.96 186.517 25.264 185.237 25.872C183.989 26.48 182.997 27.312 182.261 28.368C181.525 29.424 181.157 30.624 181.157 31.968V46.176C181.157 46.72 180.981 47.168 180.629 47.52C180.309 47.84 179.877 48 179.333 48ZM211.769 48C210.553 48 209.945 47.392 209.945 46.176V23.568C209.945 22.352 210.553 21.744 211.769 21.744C212.985 21.744 213.593 22.352 213.593 23.568V25.632C214.553 24.352 215.737 23.344 217.145 22.608C218.553 21.84 220.105 21.456 221.801 21.456C223.273 21.456 224.409 21.664 225.209 22.08C226.009 22.496 226.313 23.104 226.121 23.904C225.961 24.64 225.577 25.024 224.969 25.056C224.393 25.056 223.705 25.024 222.905 24.96C221.113 24.8 219.513 24.992 218.105 25.536C216.729 26.048 215.625 26.848 214.793 27.936C213.993 29.024 213.593 30.32 213.593 31.824V46.176C213.593 47.392 212.985 48 211.769 48ZM236.441 59.424C236.185 59.424 235.897 59.36 235.577 59.232C234.489 58.752 234.185 57.984 234.665 56.928L239.465 46.416L239.417 46.368L228.713 24.192C228.489 23.712 228.457 23.264 228.617 22.848C228.777 22.432 229.097 22.112 229.577 21.888C230.633 21.408 231.401 21.68 231.881 22.704L241.241 42.432L250.169 22.752C250.649 21.728 251.417 21.44 252.473 21.888C253.561 22.336 253.865 23.088 253.385 24.144L237.833 58.32C237.513 59.056 237.049 59.424 236.441 59.424Z" fill="#777777"/>
<path d="M30.14 60.815C26.0333 60.815 22.275 60.1367 18.865 58.78C15.4917 57.4233 12.5583 55.4983 10.065 53.005C7.57167 50.5117 5.64667 47.5783 4.29 44.205C2.93333 40.795 2.255 37.0367 2.255 32.93C2.255 28.86 2.93333 25.12 4.29 21.71C5.64667 18.3 7.57167 15.3483 10.065 12.855C12.5583 10.3617 15.4917 8.43667 18.865 7.08C22.275 5.72333 26.0333 5.045 30.14 5.045C34.21 5.045 37.95 5.72333 41.36 7.08C44.77 8.43667 47.7217 10.3617 50.215 12.855C52.7083 15.3483 54.6333 18.3 55.99 21.71C57.3467 25.12 58.025 28.86 58.025 32.93C58.025 36.3033 57.5667 39.2917 56.65 41.895C55.7333 44.4617 54.4683 46.4783 52.855 47.945C51.2783 49.4117 49.4267 50.145 47.3 50.145C45.43 50.145 43.89 49.5767 42.68 48.44C41.5067 47.34 40.92 45.8917 40.92 44.095V42.005C40.2233 43.1783 39.27 44.2233 38.06 45.14C36.8867 46.02 35.585 46.7167 34.155 47.23C32.7617 47.7433 31.35 48 29.92 48C27.0233 48 24.4567 47.3583 22.22 46.075C19.9833 44.7917 18.2417 43.0133 16.995 40.74C15.7483 38.4667 15.125 35.8633 15.125 32.93C15.125 29.9967 15.7667 27.4117 17.05 25.175C18.3333 22.9017 20.0933 21.1233 22.33 19.84C24.6033 18.52 27.2067 17.86 30.14 17.86C33.0733 17.86 35.6583 18.52 37.895 19.84C40.1683 21.1233 41.9467 22.9017 43.23 25.175C44.5133 27.4117 45.155 29.9967 45.155 32.93V42.39C45.155 44.7 45.9617 45.855 47.575 45.855C48.7483 45.855 49.7933 45.305 50.71 44.205C51.6633 43.105 52.3967 41.5833 52.91 39.64C53.46 37.6967 53.735 35.46 53.735 32.93C53.735 29.4833 53.1483 26.33 51.975 23.47C50.8383 20.5733 49.2067 18.08 47.08 15.99C44.99 13.8633 42.4967 12.2317 39.6 11.095C36.74 9.92167 33.5867 9.335 30.14 9.335C26.6567 9.335 23.4667 9.92167 20.57 11.095C17.71 12.2317 15.2167 13.8633 13.09 15.99C11 18.08 9.38667 20.5733 8.25 23.47C7.11333 26.33 6.545 29.4833 6.545 32.93C6.545 36.4133 7.11333 39.6033 8.25 42.5C9.38667 45.36 11 47.835 13.09 49.925C15.2167 52.0517 17.71 53.6833 20.57 54.82C23.4667 55.9567 26.6567 56.525 30.14 56.525C31.7533 56.525 33.4583 56.3417 35.255 55.975C37.0883 55.6083 38.61 55.1317 39.82 54.545C40.7733 54.105 41.5433 54.0317 42.13 54.325C42.7533 54.655 43.065 55.2967 43.065 56.25C43.065 57.02 42.515 57.7533 41.415 58.45C40.315 59.1467 38.7933 59.715 36.85 60.155C34.9067 60.595 32.67 60.815 30.14 60.815ZM30.14 43.655C32.23 43.655 34.0817 43.215 35.695 42.335C37.3083 41.4183 38.5733 40.1533 39.49 38.54C40.4067 36.9267 40.865 35.0567 40.865 32.93C40.865 30.84 40.4067 28.9883 39.49 27.375C38.5733 25.7617 37.3083 24.4967 35.695 23.58C34.0817 22.6633 32.23 22.205 30.14 22.205C28.0133 22.205 26.1433 22.6633 24.53 23.58C22.9167 24.4967 21.6517 25.7617 20.735 27.375C19.855 28.9883 19.415 30.84 19.415 32.93C19.415 35.0567 19.855 36.9267 20.735 38.54C21.6517 40.1533 22.9167 41.4183 24.53 42.335C26.1433 43.215 28.0133 43.655 30.14 43.655Z" fill="#830000"/>
</svg>
